<?xml version="1.0" standalone="no"?>
<!DOCTYPE svg PUBLIC "-//W3C//DTD SVG 1.1//EN" "http://www.w3.org/Graphics/SVG/1.1/DTD/svg11.dtd" >
<svg xmlns="http://www.w3.org/2000/svg">
<metadata>Generated by IcoMoon</metadata>
<defs>
<font id="NextCasinoIcons" horiz-adv-x="1024">
<font-face units-per-em="1024" ascent="960" descent="-64" />
<missing-glyph horiz-adv-x="1024" />
<glyph unicode="&#x20;" d="" horiz-adv-x="512" />
<glyph unicode="&#xe600;" d="M1024 352l-192 192v288h-128v-160l-192 192-512-512v-32h128v-320h320v192h128v-192h320v320h128z" />
<glyph unicode="&#xe601;" d="M1024 530.744c0 200.926-58.792 363.938-131.482 365.226 0.292 0.006 0.578 0.030 0.872 0.030h-82.942c0 0-194.8-146.336-475.23-203.754-8.56-45.292-14.030-99.274-14.030-161.502 0-62.228 5.466-116.208 14.030-161.5 280.428-57.418 475.23-203.756 475.23-203.756h82.942c-0.292 0-0.578 0.024-0.872 0.032 72.696 1.288 131.482 164.298 131.482 365.224zM864.824 220.748c-9.382 0-19.532 9.742-24.746 15.548-12.63 14.064-24.792 35.96-35.188 63.328-23.256 61.232-36.066 143.31-36.066 231.124 0 87.81 12.81 169.89 36.066 231.122 10.394 27.368 22.562 49.266 35.188 63.328 5.214 5.812 15.364 15.552 24.746 15.552 9.38 0 19.536-9.744 24.744-15.552 12.634-14.064 24.796-35.958 35.188-63.328 23.258-61.23 36.068-143.312 36.068-231.122 0-87.804-12.81-169.888-36.068-231.124-10.39-27.368-22.562-49.264-35.188-63.328-5.208-5.806-15.36-15.548-24.744-15.548zM251.812 530.744c0 51.95 3.81 102.43 11.052 149.094-47.372-6.554-88.942-10.324-140.34-10.324-67.058 0-67.058 0-67.058 0l-55.466-94.686v-88.17l55.46-94.686c0 0 0 0 67.060 0 51.398 0 92.968-3.774 140.34-10.324-7.236 46.664-11.048 97.146-11.048 149.096zM368.15 317.828l-127.998 24.51 81.842-321.544c4.236-16.634 20.744-25.038 36.686-18.654l118.556 47.452c15.944 6.376 22.328 23.964 14.196 39.084l-123.282 229.152zM864.824 411.27c-3.618 0-7.528 3.754-9.538 5.992-4.87 5.42-9.556 13.86-13.562 24.408-8.962 23.6-13.9 55.234-13.9 89.078 0 33.844 4.938 65.478 13.9 89.078 4.006 10.548 8.696 18.988 13.562 24.408 2.010 2.24 5.92 5.994 9.538 5.994 3.616 0 7.53-3.756 9.538-5.994 4.87-5.42 9.556-13.858 13.56-24.408 8.964-23.598 13.902-55.234 13.902-89.078 0-33.842-4.938-65.478-13.902-89.078-4.004-10.548-8.696-18.988-13.56-24.408-2.008-2.238-5.92-5.992-9.538-5.992z" />
<glyph unicode="&#xe602;" d="M1024 640l-512 256-512-256 512-256 512 256zM512 811.030l342.058-171.030-342.058-171.030-342.058 171.030 342.058 171.030zM921.444 499.278l102.556-51.278-512-256-512 256 102.556 51.278 409.444-204.722zM921.444 307.278l102.556-51.278-512-256-512 256 102.556 51.278 409.444-204.722z" />
<glyph unicode="&#xe603;" d="M1024 128v768h-1024v-768h448v-64h-192v-64h512v64h-192v64h448zM128 768h768v-512h-768v512z" />
<glyph unicode="&#xe604;" d="M768 960h-576c-35.2 0-64-28.798-64-64v-896c0-35.2 28.798-64 64-64h576c35.2 0 64 28.8 64 64v896c0 35.202-28.8 64-64 64zM480-17.782c-27.492 0-49.782 22.29-49.782 49.782s22.29 49.782 49.782 49.782 49.782-22.29 49.782-49.782-22.29-49.782-49.782-49.782zM768 128h-576v704h576v-704z" />
<glyph unicode="&#xe605;" d="M1024 448c-1.278 66.862-15.784 133.516-42.576 194.462-26.704 61-65.462 116.258-113.042 161.92-47.552 45.696-103.944 81.82-164.984 105.652-61.004 23.924-126.596 35.352-191.398 33.966-64.81-1.282-129.332-15.374-188.334-41.356-59.048-25.896-112.542-63.47-156.734-109.576-44.224-46.082-79.16-100.708-102.186-159.798-23.114-59.062-34.128-122.52-32.746-185.27 1.286-62.76 14.964-125.148 40.134-182.206 25.088-57.1 61.476-108.828 106.11-151.548 44.61-42.754 97.472-76.504 154.614-98.72 57.118-22.304 118.446-32.902 179.142-31.526 60.708 1.29 120.962 14.554 176.076 38.914 55.15 24.282 105.116 59.48 146.366 102.644 41.282 43.14 73.844 94.236 95.254 149.43 13.034 33.458 21.88 68.4 26.542 103.798 1.246-0.072 2.498-0.12 3.762-0.12 35.346 0 64 28.652 64 64 0 1.796-0.094 3.572-0.238 5.332h0.238zM922.306 278.052c-23.472-53.202-57.484-101.4-99.178-141.18-41.67-39.81-91-71.186-144.244-91.79-53.228-20.678-110.29-30.452-166.884-29.082-56.604 1.298-112.596 13.736-163.82 36.474-51.25 22.666-97.684 55.49-135.994 95.712-38.338 40.198-68.528 87.764-88.322 139.058-19.87 51.284-29.228 106.214-27.864 160.756 1.302 54.552 13.328 108.412 35.254 157.69 21.858 49.3 53.498 93.97 92.246 130.81 38.73 36.868 84.53 65.87 133.874 84.856 49.338 19.060 102.136 28.006 154.626 26.644 52.5-1.306 104.228-12.918 151.562-34.034 47.352-21.050 90.256-51.502 125.624-88.782 35.396-37.258 63.21-81.294 81.39-128.688 18.248-47.392 26.782-98.058 25.424-148.496h0.238c-0.144-1.76-0.238-3.536-0.238-5.332 0-33.012 24.992-60.174 57.086-63.624-6.224-34.822-16.53-68.818-30.78-100.992z" />
<glyph unicode="&#xe606;" d="M992.262 88.604l-242.552 206.294c-25.074 22.566-51.89 32.926-73.552 31.926 57.256 67.068 91.842 154.078 91.842 249.176 0 212.078-171.922 384-384 384-212.076 0-384-171.922-384-384 0-212.078 171.922-384 384-384 95.098 0 182.108 34.586 249.176 91.844-1-21.662 9.36-48.478 31.926-73.552l206.294-242.552c35.322-39.246 93.022-42.554 128.22-7.356s31.892 92.898-7.354 128.22zM384 320c-141.384 0-256 114.616-256 256s114.616 256 256 256 256-114.616 256-256-114.614-256-256-256z" />
<glyph unicode="&#xe607;" d="M0 832v-832h1024v832h-1024zM960 64h-896v704h896v-704zM704 608c0 53.019 42.981 96 96 96s96-42.981 96-96c0-53.019-42.981-96-96-96-53.019 0-96 42.981-96 96zM896 128h-768l192 512 256-320 128 96z" />
<glyph unicode="&#xe608;" d="M1024 351.906v192.188l-146.774 24.462c-5.958 18.132-13.222 35.668-21.694 52.5l86.454 121.034-135.896 135.898-120.826-86.304c-16.91 8.554-34.538 15.888-52.768 21.902l-24.402 146.414h-192.188l-24.402-146.416c-18.23-6.014-35.858-13.348-52.766-21.902l-120.828 86.304-135.898-135.898 86.454-121.036c-8.47-16.83-15.734-34.366-21.692-52.498l-146.774-24.46v-192.188l147.118-24.52c5.96-17.968 13.21-35.348 21.642-52.030l-86.748-121.448 135.898-135.896 121.654 86.894c16.602-8.35 33.89-15.528 51.764-21.434l24.578-147.472h192.188l24.578 147.474c17.874 5.906 35.162 13.084 51.766 21.432l121.652-86.892 135.896 135.896-86.744 121.446c8.432 16.682 15.678 34.062 21.64 52.032l147.118 24.518zM512 320c-70.692 0-128 57.306-128 128 0 70.692 57.308 128 128 128 70.694 0 128-57.308 128-128 0-70.694-57.306-128-128-128z" />
<glyph unicode="&#xe609;" d="M128 64h896v-128h-1024v1024h128zM288 128c-53.020 0-96 42.98-96 96s42.98 96 96 96c2.828 0 5.622-0.148 8.388-0.386l103.192 171.986c-9.84 15.070-15.58 33.062-15.58 52.402 0 53.020 42.98 96 96 96 53.020 0 96-42.98 96-96 0-19.342-5.74-37.332-15.58-52.402l103.192-171.986c2.766 0.238 5.56 0.386 8.388 0.386 2.136 0 4.248-0.094 6.35-0.23l170.356 298.122c-10.536 15.408-16.706 34.036-16.706 54.11 0 53.020 42.98 96 96 96 53.020 0 96-42.98 96-96 0-53.020-42.98-96-96-96-2.14 0-4.248 0.094-6.35 0.232l-170.356-298.124c10.536-15.406 16.706-34.036 16.706-54.11 0-53.020-42.98-96-96-96-53.020 0-96 42.98-96 96 0 19.34 5.74 37.332 15.578 52.402l-103.19 171.984c-2.766-0.238-5.56-0.386-8.388-0.386s-5.622 0.146-8.388 0.386l-103.192-171.986c9.84-15.068 15.58-33.060 15.58-52.4 0-53.020-42.98-96-96-96z" />
<glyph unicode="&#xe60a;" d="M832 768v128h-640v-128h-192v-128c0-106.038 85.958-192 192-192 20.076 0 39.43 3.086 57.62 8.802 46.174-66.008 116.608-113.796 198.38-130.396v-198.406h-64c-70.694 0-128-57.306-128-128h512c0 70.694-57.306 128-128 128h-64v198.406c81.772 16.6 152.206 64.386 198.38 130.396 18.19-5.716 37.544-8.802 57.62-8.802 106.042 0 192 85.962 192 192v128h-192zM192 524c-63.962 0-116 52.038-116 116v64h116v-64c0-40.186 7.43-78.632 20.954-114.068-6.802-1.246-13.798-1.932-20.954-1.932zM948 640c0-63.962-52.038-116-116-116-7.156 0-14.152 0.686-20.954 1.932 13.524 35.436 20.954 73.882 20.954 114.068v64h116v-64z" />
<glyph unicode="&#xe60b;" d="M64 768h896v-192h-896zM64 512h896v-192h-896zM64 256h896v-192h-896z" />
<glyph unicode="&#xe60c;" d="M0 576h704v-128h-704v128zM0 768h704v-128h-704v128zM0 384h704v-128h-704v128zM0 192h704v-128h-704v128zM768 384l128-192 128 192h-256zM1024 448l-128 192-128-192h256z" />
<glyph unicode="&#xe60d;" d="M384 896h640v-128h-640v128zM384 512h640v-128h-640v128zM384 128h640v-128h-640v128zM0 832c0 70.692 57.308 128 128 128s128-57.308 128-128c0-70.692-57.308-128-128-128-70.692 0-128 57.308-128 128zM0 448c0 70.692 57.308 128 128 128s128-57.308 128-128c0-70.692-57.308-128-128-128-70.692 0-128 57.308-128 128zM0 64c0 70.692 57.308 128 128 128s128-57.308 128-128c0-70.692-57.308-128-128-128-70.692 0-128 57.308-128 128z" />
<glyph unicode="&#xe60e;" d="M976 192h-16v208c0 61.756-50.242 112-112 112h-272v128h16c26.4 0 48 21.6 48 48v160c0 26.4-21.6 48-48 48h-160c-26.4 0-48-21.6-48-48v-160c0-26.4 21.6-48 48-48h16v-128h-272c-61.756 0-112-50.244-112-112v-208h-16c-26.4 0-48-21.6-48-48v-160c0-26.4 21.6-48 48-48h160c26.4 0 48 21.6 48 48v160c0 26.4-21.6 48-48 48h-16v192h256v-192h-16c-26.4 0-48-21.6-48-48v-160c0-26.4 21.6-48 48-48h160c26.4 0 48 21.6 48 48v160c0 26.4-21.6 48-48 48h-16v192h256v-192h-16c-26.4 0-48-21.6-48-48v-160c0-26.4 21.6-48 48-48h160c26.4 0 48 21.6 48 48v160c0 26.4-21.6 48-48 48zM192 0h-128v128h128v-128zM576 0h-128v128h128v-128zM448 704v128h128v-128h-128zM960 0h-128v128h128v-128z" />
<glyph unicode="&#xe60f;" d="M874.040 810.038c96.702-96.704 149.96-225.28 149.96-362.040s-53.258-265.334-149.96-362.038c-96.706-96.702-225.28-149.96-362.040-149.96-136.76 0-265.334 53.258-362.040 149.96-96.702 96.704-149.96 225.278-149.96 362.038 0 136.76 53.254 265.336 149.96 362.040 96.706 96.704 225.28 149.962 362.040 149.962 136.76 0 265.334-53.258 362.040-149.962zM828.784 131.214c63.058 63.060 104.986 141.608 122.272 227.062-13.474-19.836-26.362-27.194-34.344 17.206-8.22 72.39-74.708 26.148-116.516 51.86-44.004-29.658-142.906 57.662-126.098-40.824 25.934-44.422 140.008 59.45 83.148-34.542-36.274-65.616-132.642-210.932-120.106-286.258 1.582-109.744-112.134-22.884-151.314 13.52-26.356 72.92-8.982 200.374-77.898 236.086-74.802 3.248-139.004 10.046-167.994 93.67-17.446 59.828 18.564 148.894 82.678 162.644 93.85 58.966 127.374-69.054 215.39-71.434 27.328 28.594 101.816 37.686 107.992 69.75-57.75 10.19 73.268 48.558-5.528 70.382-43.47-5.112-71.478-45.074-48.368-78.958-84.238-19.642-86.936 121.904-167.91 77.258-2.058-70.59-132.222-22.886-45.036-8.572 29.956 13.088-48.86 51.016-6.28 44.124 20.916 1.136 91.332 25.812 72.276 42.402 39.21 24.34 72.16-58.29 110.538 1.882 27.708 46.266-11.62 54.808-46.35 31.356-19.58 21.924 34.57 69.276 82.332 89.738 15.918 6.82 31.122 10.536 42.746 9.484 24.058-27.792 68.55-32.606 70.878 3.342-59.582 28.534-125.276 43.608-193.292 43.608-97.622 0-190.47-31.024-267.308-88.39 20.65-9.46 32.372-21.238 12.478-36.296-15.456-46.054-78.17-107.876-133.224-99.124-28.586-49.296-47.412-103.606-55.46-160.528 46.112-15.256 56.744-45.45 46.836-55.55-23.496-20.488-37.936-49.53-45.376-81.322 15.010-91.836 58.172-176.476 125.27-243.576 84.616-84.614 197.118-131.214 316.784-131.214 119.664 0 232.168 46.6 316.784 131.214z" />
<glyph unicode="&#xe610;" d="M953.396 885.358l-4.028 4.042c-94.148 94.134-248.194 94.134-342.326 0l-218.106-218.136c-94.134-94.132-94.134-248.176 0-342.31l4.026-4.026c7.832-7.848 16.146-14.924 24.736-21.458l79.848 79.85c-9.302 5.494-18.126 12.072-26.116 20.060l-4.042 4.042c-51.114 51.098-51.114 134.272 0 185.39l218.128 218.112c51.116 51.118 134.274 51.118 185.386 0l4.042-4.024c51.1-51.116 51.1-134.292 0-185.39l-98.686-98.686c17.132-42.308 25.248-87.4 24.538-132.386l152.604 152.604c94.134 94.136 94.134 248.178-0.004 342.316zM631.042 571.066c-7.832 7.832-16.146 14.922-24.736 21.44l-79.848-79.832c9.304-5.496 18.126-12.074 26.116-20.062l4.042-4.040c51.116-51.116 51.116-134.272 0-185.388l-218.13-218.134c-51.118-51.102-134.276-51.102-185.388 0l-4.042 4.042c-51.098 51.12-51.098 134.276 0 185.388l98.688 98.686c-17.134 42.306-25.246 87.402-24.538 132.386l-152.602-152.598c-94.136-94.132-94.136-248.178 0-342.324l4.026-4.032c94.152-94.128 248.192-94.128 342.328 0l218.11 218.118c94.134 94.132 94.134 248.194 0 342.326l-4.026 4.024z" />
<glyph unicode="&#xe611;" d="M1024 562.95l-353.78 51.408-158.22 320.582-158.216-320.582-353.784-51.408 256-249.538-60.432-352.352 316.432 166.358 316.432-166.358-60.434 352.352 256.002 249.538zM512 206.502l-223.462-117.48 42.676 248.83-180.786 176.222 249.84 36.304 111.732 226.396 111.736-226.396 249.836-36.304-180.788-176.222 42.678-248.83-223.462 117.48z" />
<glyph unicode="&#xe612;" d="M1024 562.95l-353.78 51.408-158.22 320.582-158.216-320.582-353.784-51.408 256-249.538-60.432-352.352 316.432 166.358 316.432-166.358-60.434 352.352 256.002 249.538z" />
<glyph unicode="&#xe613;" d="M0 448c0-282.77 229.23-512 512-512 282.772 0 512 229.23 512 512s-229.228 512-512 512c-282.77 0-512-229.23-512-512zM896 448c0-73.236-20.512-141.68-56.088-199.912l-527.822 527.824c58.23 35.578 126.674 56.088 199.91 56.088 212.076 0 384-171.922 384-384zM128 448c0 73.236 20.512 141.678 56.090 199.912l527.822-527.824c-58.234-35.578-126.676-56.088-199.912-56.088-212.076 0-384 171.922-384 384z" />
<glyph unicode="&#xe614;" d="M864 832l-480-480-224 224-160-160 384-384 640 640z" />
<glyph unicode="&#xe615;" d="M1024 224l-288 736h-448l-288-288v-448l288-288h448l288 288v448l-288 288zM576 128h-128v128h128v-128zM576 384h-128v384h128v-384z" />
<glyph unicode="&#xe616;" d="M512 960c-282.77 0-512-229.23-512-512s229.23-512 512-512 512 229.23 512 512-229.23 512-512 512zM512 32c-229.75 0-416 186.25-416 416s186.25 416 416 416 416-186.25 416-416-186.25-416-416-416zM448 704h128v-128h-128zM640 192h-256v64h64v192h-64v64h192v-256h64z" />
<glyph unicode="&#xe617;" d="M0 544v-192c0-17.672 14.328-32 32-32h960c17.672 0 32 14.328 32 32v192c0 17.672-14.328 32-32 32h-960c-17.672 0-32-14.328-32-32z" />
<glyph unicode="&#xe618;" d="M992 576h-352v352c0 17.672-14.328 32-32 32h-192c-17.672 0-32-14.328-32-32v-352h-352c-17.672 0-32-14.328-32-32v-192c0-17.672 14.328-32 32-32h352v-352c0-17.672 14.328-32 32-32h192c17.672 0 32 14.328 32 32v352h352c17.672 0 32 14.328 32 32v192c0 17.672-14.328 32-32 32z" />
<glyph unicode="&#xe619;" d="M874.022 810.020c-92.652 92.656-220.636 149.98-362.022 149.98-219.488 0-406.69-138.128-479.498-332.188l119.876-44.954c54.604 145.546 195.006 249.142 359.622 249.142 106.040 0 202.020-43 271.506-112.494l-143.506-143.506h384v384l-149.978-149.98zM512 64c-106.040 0-202.026 42.992-271.512 112.488l143.512 143.512h-384v-384l149.994 149.994c92.646-92.662 220.618-149.994 362.006-149.994 219.49 0 406.692 138.128 479.5 332.188l-119.876 44.954c-54.604-145.546-195.006-249.142-359.624-249.142z" />
<glyph unicode="&#xe61a;" d="M1024 448l-512 512v-320h-511.998l-0.002-384h512v-320z" />
<glyph unicode="&#xe61b;" d="M0 448l512-512v320h511.998l0.002 384h-512v320z" />
<glyph unicode="&#xe61c;" d="M0 832l384-384v-384l256 64v320l384 384z" />
<glyph unicode="&#xe61d;" d="M791.498 415.908c-1.294 129.682 105.758 191.876 110.542 194.966-60.152 88.020-153.85 100.078-187.242 101.472-79.742 8.074-155.596-46.948-196.066-46.948-40.368 0-102.818 45.754-168.952 44.552-86.916-1.292-167.058-50.538-211.812-128.38-90.304-156.698-23.126-388.84 64.89-515.926 43.008-62.204 94.292-132.076 161.626-129.58 64.842 2.588 89.362 41.958 167.756 41.958 78.394 0 100.428-41.958 169.050-40.67 69.774 1.296 113.982 63.398 156.692 125.796 49.39 72.168 69.726 142.038 70.924 145.626-1.548 0.706-136.060 52.236-137.408 207.134zM662.562 796.478c35.738 43.358 59.86 103.512 53.28 163.522-51.478-2.096-113.878-34.29-150.81-77.55-33.142-38.376-62.148-99.626-54.374-158.436 57.466-4.484 116.128 29.204 151.904 72.464z" />
<glyph unicode="&#xe61e;" d="M0.35 448l-0.35 312.074 384 52.144v-364.218zM448 821.518l511.872 74.482v-448h-511.872zM959.998 384l-0.126-448-511.872 72.016v375.984zM384 16.164l-383.688 52.594-0.020 315.242h383.708z" />
<glyph unicode="&#xe61f;" d="M864 640c-35.2 0-64-28.8-64-64v-256c0-35.2 28.8-64 64-64s64 28.8 64 64v256c0 35.2-28.8 64-64 64zM96 640c-35.2 0-64-28.8-64-64v-256c0-35.2 28.8-64 64-64s64 28.8 64 64v256c0 35.2-28.802 64-64 64zM192 224c0-53.020 42.98-96 96-96h32v-128c0-35.2 28.8-64 64-64s64 28.8 64 64v128h64v-128c0-35.2 28.802-64 64-64s64 28.8 64 64v128h32c53.020 0 96 42.98 96 96v352h-576v-352zM598.598 870.506l40.504 77.806c2.032 3.902 0.5 8.758-3.402 10.79s-8.758 0.5-10.79-3.402l-41.118-78.986c-32.198 12.448-67.194 19.286-103.792 19.286-36.596 0-71.592-6.838-103.796-19.286l-41.116 78.984c-2.032 3.902-6.886 5.434-10.79 3.402s-5.434-6.886-3.402-10.79l40.5-77.808c-90.63-41.018-156.24-127.584-167.62-230.504h572.44c-11.376 102.924-76.986 189.488-167.618 230.508zM352 689.6c-25.626 0-46.4 20.774-46.4 46.4s20.774 46.4 46.4 46.4 46.4-20.774 46.4-46.4c-0.002-25.626-20.774-46.4-46.4-46.4zM608 689.6c-25.626 0-46.402 20.774-46.402 46.4s20.778 46.4 46.402 46.4 46.398-20.774 46.398-46.4c0-25.626-20.772-46.4-46.398-46.4z" />
<glyph unicode="&#xe620;" d="M658.744 210.744l-210.744 210.746v282.51h128v-229.49l173.256-173.254zM512 960c-282.77 0-512-229.23-512-512s229.23-512 512-512 512 229.23 512 512-229.23 512-512 512zM512 64c-212.078 0-384 171.922-384 384s171.922 384 384 384c212.078 0 384-171.922 384-384 0-212.078-171.922-384-384-384z" />
<glyph unicode="&#xe621;" d="M0 960v-1024h1024v1024h-1024zM960 0h-896v896h896v-896zM768 736l-320-320-192 192-128-128 320-320 448 448-128 128z" />
<glyph unicode="&#xe622;" d="M0 960v-1024h1024v1024h-1024zM960 0h-896v896h896v-896z" />
<glyph unicode="&#xe623;" d="M0 960v-1024h1024v1024h-1024zM960 0h-896v896h896v-896zM256 704h512v-512h-512z" />
<glyph unicode="&#xe624;" d="M903.432 760.57l-142.864 142.862c-31.112 31.112-92.568 56.568-136.568 56.568h-480c-44 0-80-36-80-80v-864c0-44 36-80 80-80h736c44 0 80 36 80 80v608c0 44-25.456 105.458-56.568 136.57zM858.178 715.314c3.13-3.13 6.25-6.974 9.28-11.314h-163.458v163.456c4.34-3.030 8.184-6.15 11.314-9.28l142.864-142.862zM896 16c0-8.672-7.328-16-16-16h-736c-8.672 0-16 7.328-16 16v864c0 8.672 7.328 16 16 16h480c4.832 0 10.254-0.61 16-1.704v-254.296h254.296c1.094-5.746 1.704-11.166 1.704-16v-608z" />
<glyph unicode="&#xe625;" d="M771.516 640c18.126 12.88 35.512 27.216 51.444 43.148 33.402 33.402 55.746 74.5 62.912 115.722 7.858 45.186-3.672 87.14-31.63 115.1-22.3 22.298-52.51 34.086-87.364 34.086-49.632 0-101.922-23.824-143.46-65.362-66.476-66.476-105.226-158.238-126.076-223.722-15.44 65.802-46.206 154.644-106.018 214.458-32.094 32.092-73.114 48.57-111.846 48.57-31.654 0-61.78-11.004-84.26-33.486-49.986-49.988-43.232-137.786 15.086-196.104 20.792-20.792 45.098-38.062 70.72-52.412h-217.024v-256h64v-448h768v448.002h64v256h-188.484zM674.326 831.782c27.724 27.724 62.322 44.274 92.55 44.274 10.7 0 25.708-2.254 36.45-12.998 26.030-26.028 11.412-86.308-31.28-128.998-43.946-43.946-103.060-74.168-154.432-94.060h-50.672c18.568 57.548 52.058 136.456 107.384 191.782zM233.934 799.11c-0.702 9.12-0.050 26.248 12.196 38.494 10.244 10.244 23.788 12.396 33.348 12.396v0c21.258 0 43.468-10.016 60.932-27.48 33.872-33.872 61.766-87.772 80.668-155.876 0.51-1.84 1.008-3.67 1.496-5.486-1.816 0.486-3.646 0.984-5.486 1.496-68.104 18.904-122.002 46.798-155.874 80.67-15.828 15.826-25.77 36.16-27.28 55.786zM448 0h-256v416h256v-416zM448 448h-320v128h320v-128zM832 0h-256v416h256v-416zM896 448h-320v128h320v-128z" />
<glyph unicode="&#xe626;" d="M1024 512h-100.924c-27.64 178.24-168.836 319.436-347.076 347.076v100.924h-128v-100.924c-178.24-27.64-319.436-168.836-347.076-347.076h-100.924v-128h100.924c27.64-178.24 168.836-319.436 347.076-347.076v-100.924h128v100.924c178.24 27.64 319.436 168.836 347.076 347.076h100.924v128zM792.822 512h-99.762c-19.284 54.55-62.51 97.778-117.060 117.060v99.762c107.514-24.49 192.332-109.31 216.822-216.822zM512 384c-35.346 0-64 28.654-64 64s28.654 64 64 64c35.346 0 64-28.654 64-64 0-35.346-28.654-64-64-64zM448 728.822v-99.762c-54.55-19.282-97.778-62.51-117.060-117.060h-99.762c24.49 107.512 109.31 192.332 216.822 216.822zM231.178 384h99.762c19.282-54.55 62.51-97.778 117.060-117.060v-99.762c-107.512 24.49-192.332 109.308-216.822 216.822zM576 167.178v99.762c54.55 19.284 97.778 62.51 117.060 117.060h99.762c-24.49-107.514-109.308-192.332-216.822-216.822z" />
<glyph unicode="&#xe627;" d="M320 576h128v-128h-128zM512 576h128v-128h-128zM704 576h128v-128h-128zM128 192h128v-128h-128zM320 192h128v-128h-128zM512 192h128v-128h-128zM320 384h128v-128h-128zM512 384h128v-128h-128zM704 384h128v-128h-128zM128 384h128v-128h-128zM832 960v-64h-128v64h-448v-64h-128v64h-128v-1024h960v1024h-128zM896 0h-832v704h832v-704z" />
<glyph unicode="&#xe628;" d="M512.002 766.788v65.212h128v64c0 35.346-28.654 64-64.002 64h-191.998c-35.346 0-64-28.654-64-64v-64h128v-65.212c-214.798-16.338-384-195.802-384-414.788 0-229.75 186.25-416 416-416 229.75 0 416 186.25 416 416 0 218.984-169.202 398.448-384 414.788zM706.276 125.726c-60.442-60.44-140.798-93.726-226.274-93.726s-165.834 33.286-226.274 93.726c-60.44 60.44-93.726 140.8-93.726 226.274s33.286 165.834 93.726 226.274c58.040 58.038 134.448 91.018 216.114 93.548l-21.678-314.020c-1.86-26.29 12.464-37.802 31.836-37.802s33.698 11.512 31.836 37.802l-21.676 314.022c81.666-2.532 158.076-35.512 216.116-93.55 60.44-60.44 93.726-140.8 93.726-226.274s-33.286-165.834-93.726-226.274z" />
<glyph unicode="&#xe629;" d="M1024 384v64h-193.29c-5.862 72.686-31.786 139.026-71.67 192.25h161.944l70.060 280.24-62.090 15.522-57.94-231.76h-174.68c-0.892 0.694-1.796 1.374-2.698 2.056 6.71 19.502 10.362 40.422 10.362 62.194 0.002 105.76-85.958 191.498-191.998 191.498s-192-85.738-192-191.5c0-21.772 3.65-42.692 10.362-62.194-0.9-0.684-1.804-1.362-2.698-2.056h-174.68l-57.94 231.76-62.090-15.522 70.060-280.24h161.944c-39.884-53.222-65.806-119.562-71.668-192.248h-193.29v-64h193.37c3.802-45.664 15.508-88.812 33.638-127.75h-123.992l-70.060-280.238 62.090-15.524 57.94 231.762h112.354c58.692-78.032 147.396-127.75 246.66-127.75s187.966 49.718 246.662 127.75h112.354l57.94-231.762 62.090 15.524-70.060 280.238h-123.992c18.13 38.938 29.836 82.086 33.636 127.75h193.37z" />
<glyph unicode="&#xe62a;" d="M1024 601.844c0-86.362-37.218-164.030-96.49-217.844h0.49l-320-320c-32-32-64-64-96-64s-64 32-96 64l-319.51 320c-59.272 53.814-96.49 131.482-96.49 217.844 0 162.458 131.698 294.156 294.156 294.156 86.362 0 164.030-37.218 217.844-96.49 53.814 59.272 131.482 96.49 217.844 96.49 162.456 0 294.156-131.698 294.156-294.156z" />
<glyph unicode="&#xe62b;" d="M1024 601.844c0 162.458-131.7 294.156-294.156 294.156-86.362 0-164.030-37.218-217.844-96.49-53.814 59.272-131.482 96.49-217.844 96.49-162.458 0-294.156-131.698-294.156-294.156 0-86.362 37.218-164.030 96.49-217.844h-0.49l320-320c32-32 64-64 96-64s64 32 96 64l319.51 320c59.272 53.814 96.49 131.482 96.49 217.844zM841.468 478.768l-323.978-324.258c-1.678-1.678-3.532-3.532-5.49-5.48-1.96 1.95-3.814 3.802-5.49 5.48l-323.978 324.256c-35.166 31.928-54.532 75.638-54.532 123.078 0 91.618 74.538 166.156 166.156 166.156 47.44 0 91.15-19.366 123.076-54.532l94.768-104.38 94.768 104.378c31.928 35.168 75.636 54.534 123.076 54.534 91.618 0 166.156-74.538 166.156-166.156 0-47.44-19.368-91.15-54.532-123.076z" />
<glyph unicode="&#xe62c;" d="M640 813.412v-135.958c36.206-15.804 69.5-38.408 98.274-67.18 60.442-60.44 93.726-140.8 93.726-226.274s-33.286-165.834-93.726-226.274c-60.44-60.44-140.798-93.726-226.274-93.726s-165.834 33.286-226.274 93.726c-60.44 60.44-93.726 140.8-93.726 226.274s33.286 165.834 93.726 226.274c28.774 28.774 62.068 51.378 98.274 67.182v135.956c-185.048-55.080-320-226.472-320-429.412 0-247.424 200.578-448 448-448 247.424 0 448 200.576 448 448 0 202.94-134.95 374.332-320 429.412zM448 960h128v-512h-128z" />
<glyph unicode="&#xe62d;" d="M1088 58.834c0-45.5 26.028-84.908 64-104.184v-15.938c-10.626-1.454-21.472-2.224-32.5-2.224-68.008 0-129.348 28.528-172.722 74.264-26.222-6.982-54.002-10.752-82.778-10.752-159.058 0-288 114.616-288 256 0 141.384 128.942 256 288 256 159.058 0 288-114.616 288-256 0-55.348-19.764-106.592-53.356-148.466-6.824-14.824-10.644-31.312-10.644-48.7zM512 960c278.458 0 504.992-180.614 511.836-405.52-49.182 21.92-103.586 33.52-159.836 33.52-95.56 0-185.816-33.446-254.138-94.178-70.846-62.972-109.862-147.434-109.862-237.822 0-44.672 9.544-87.888 27.736-127.788-5.228-0.126-10.468-0.212-15.736-0.212-27.156 0-53.81 1.734-79.824 5.044-109.978-109.978-241.25-129.7-368.176-132.596v26.916c68.536 33.578 128 94.74 128 164.636 0 9.754-0.758 19.33-2.164 28.696-115.796 76.264-189.836 192.754-189.836 323.304 0 229.75 229.23 416 512 416z" horiz-adv-x="1152" />
<glyph unicode="&#xe62e;" d="M512 960c-282.77 0-512-229.23-512-512s229.23-512 512-512 512 229.23 512 512-229.23 512-512 512zM512 32c-229.75 0-416 186.25-416 416s186.25 416 416 416 416-186.25 416-416-186.25-416-416-416zM813.256 493.254l-256.002 256c-24.992 24.994-65.514 24.994-90.508 0s-24.994-65.516 0-90.51l146.744-146.744h-357.49c-35.346 0-64-28.654-64-64s28.654-64 64-64h357.49l-146.746-146.744c-24.994-24.994-24.994-65.518 0-90.512 12.498-12.496 28.878-18.744 45.256-18.744s32.758 6.248 45.254 18.744l256.002 256c24.992 24.994 24.992 65.518 0 90.51z" />
<glyph unicode="&#xe62f;" d="M512 960c-176.732 0-320-143.268-320-320 0-320 320-704 320-704s320 384 320 704c0 176.732-143.27 320-320 320zM512 448c-106.040 0-192 85.96-192 192s85.96 192 192 192 192-85.96 192-192-85.96-192-192-192z" />
<glyph unicode="&#xe630;" d="M896 800h-768c-70.688 0-128-57.344-128-128v-416c0-70.688 57.312-128 128-128h768c70.688 0 128 57.312 128 128v416c0 70.656-57.312 128-128 128zM64 632l223.968-168-223.968-168v336zM960 256c0-35.328-28.736-64-64-64h-768c-35.296 0-64 28.672-64 64l250.624 188 139.776-104.864c17.056-12.736 37.312-19.2 57.6-19.2 20.256 0 40.512 6.432 57.568 19.2l139.808 104.864 250.624-188zM960 296l-224 168 224 168v-336zM550.368 364.736c-11.168-8.384-24.416-12.8-38.368-12.8s-27.232 4.448-38.4 12.8l-409.6 307.264c0 35.296 28.704 64 64 64h768c35.264 0 64-28.704 64-64l-409.632-307.264z" />
<glyph unicode="&#xe631;" d="M800 544v128c0 159.072-128.928 288-288 288s-288-128.928-288-288v-128c-53.024 0-96-42.976-96-96v-224c0-159.072 128.928-288 288-288h192c159.072 0 288 128.928 288 288v224c0 53.056-43.008 96-96 96zM288 672c0 123.712 100.288 224 224 224s224-100.288 224-224v-128h-64v127.936c0 88.384-71.616 160-160 160s-160-71.616-160-160v-127.936h-64v128zM640 672v-128h-256v128c0 70.688 57.312 128 128 128s128-57.312 128-128zM832 352v-128c0-123.488-100.512-224-224-224h-192c-123.488 0-224 100.512-224 224v224c0 17.664 14.336 32 32 32 21.344 0 42.656 0 64 0h448c21.312 0 42.624 0 64 0 17.632 0 32-14.336 32-32v-96zM512 352c35.328 0 64-28.64 64-64 0-19.488-10.496-56.576-21.312-85.824-8.736-23.616-17.664-42.112-42.688-42.112-23.008 0-33.952 18.688-42.656 42.432-10.688 29.184-21.344 66.080-21.344 85.504 0 35.36 28.672 64 64 64z" />
<glyph unicode="&#xe632;" d="M702.432 923.2c-262.464 105.088-560.48-22.464-665.6-284.96-105.152-262.528 22.464-560.576 284.96-665.664 262.496-105.12 560.512 22.464 665.632 284.96 105.152 262.528-22.496 560.512-284.992 665.664zM345.6 31.968c-229.312 91.84-341.184 353.088-249.376 582.432 91.84 229.312 353.12 341.216 582.464 249.344 229.312-91.808 341.184-353.088 249.376-582.4-91.872-229.344-353.12-341.184-582.464-249.376zM535.968 507.296c-32.8 13.152-70.080-2.816-83.232-35.616s2.816-70.048 35.584-83.2c32.8-13.152 70.112 2.816 83.232 35.584 13.12 32.8-2.816 70.048-35.584 83.232zM500.224 418.144c-16.384 6.592-24.352 25.216-17.824 41.632 6.592 16.384 25.248 24.352 41.632 17.824 16.352-6.56 24.32-25.216 17.792-41.632-6.56-16.384-25.216-24.352-41.6-17.824zM583.488 626.080c-98.432 39.424-210.176-8.448-249.6-106.848-39.424-98.432 8.448-210.176 106.848-249.6 98.432-39.424 210.176 8.416 249.6 106.848s-8.384 210.208-106.848 249.6zM464.576 329.056c-65.536 26.208-97.472 100.896-71.264 166.4 26.24 65.504 100.864 97.472 166.368 71.264 65.568-26.24 97.504-100.928 71.328-166.432-26.272-65.504-100.928-97.504-166.432-71.232zM749.824 352.704h-0.064c-26.144-65.248-76.256-113.792-136.192-139.712-0.224-0.096-0.352-0.352-0.672-0.48-8.128-3.456-17.504 0.288-20.992 8.448-3.488 8.096 0.32 17.504 8.384 20.96 52.672 22.56 96.8 65.216 119.808 122.688v-0.032c3.296 8.224 12.608 12.224 20.8 8.896 8.192-3.264 12.192-12.576 8.928-20.768zM859.68 325.952c8.192-3.296 12.192-12.608 8.928-20.8-39.2-97.856-114.432-170.72-204.32-209.536-0.384-0.16-0.672-0.512-1.056-0.704-8.128-3.456-17.504 0.256-20.992 8.416-3.488 8.128 0.32 17.536 8.384 20.992 82.816 35.456 152.128 102.496 188.256 192.736 3.296 8.192 12.608 12.192 20.8 8.896zM800.256 349.728c8.192-3.296 12.192-12.608 8.928-20.8-32.672-81.568-95.36-142.24-170.24-174.592-0.352-0.192-0.544-0.48-0.864-0.64-8.128-3.456-17.504 0.288-20.992 8.416-3.488 8.128 0.32 17.536 8.448 21.024h-0.064c67.808 29.024 124.48 83.84 153.984 157.696 3.296 8.224 12.608 12.192 20.8 8.896zM432.416 674.816c3.488-8.16-0.288-17.536-8.416-21.056-52.672-22.528-96.8-65.216-119.776-122.624h-0.032c-3.264-8.192-12.576-12.192-20.8-8.896-8.192 3.296-12.192 12.576-8.896 20.8h0.032c26.112 65.216 76.256 113.792 136.192 139.712 0.224 0.096 0.384 0.352 0.672 0.448 8.128 3.488 17.536-0.224 21.024-8.384zM382.016 792.48c3.488-8.128-0.288-17.504-8.384-21.024-82.816-35.456-152.096-102.496-188.256-192.704-3.296-8.224-12.608-12.192-20.8-8.896-8.224 3.264-12.224 12.576-8.896 20.832 39.2 97.856 114.4 170.688 204.32 209.536 0.32 0.16 0.608 0.512 0.992 0.672 8.128 3.456 17.536-0.288 21.024-8.416zM398.784 712.672v-0.096c-67.744-28.992-124.448-83.84-153.984-157.696-3.296-8.224-12.608-12.16-20.8-8.896-8.16 3.328-12.192 12.608-8.864 20.832 32.64 81.536 95.328 142.272 170.24 174.656 0.32 0.128 0.512 0.448 0.832 0.576 8.128 3.488 17.536-0.288 21.024-8.384 3.488-8.16-0.32-17.536-8.416-20.992z" />
<glyph unicode="&#xe633;" d="M4.298 634.162l506.582-679.416-172.906 680.752zM1025.445 630.153l-510.591-679.452 205.089 680.788zM667.605 630.153l-151.379-528.001-129.996 529.338zM0 671.041l175.146 255.621 134.98-255.621zM1025.698 671.041l-175.109 255.621-106.843-255.621zM377.923 671.041l138.953 231.457 151.017-231.457zM497.046 960l-138.989-231.457-126.889 231.457zM802.621 960l-110.888-231.457-163.045 231.457z" />
<glyph unicode="&#xe634;" d="M87.374 590.565c-0.072 0.072-0.217 0.181-0.289 0.289-0.072 0.108-0.144 0.253-0.181 0.361l-16.615 18.674 1.698-24.778c0.072-0.217 0.108-0.361 0.144-0.47 0-0.108 0-0.253 0-0.397 0-0.325 0.072-0.614 0.108-0.867 0-0.253 0.036-0.433 0.108-0.542 0.108-0.325 0.397-0.397 0.867-0.253 0.433 0.144 1.084 0.397 1.914 0.759l11.378 4.732c0.181 0.072 0.361 0.108 0.506 0.144s0.289 0.072 0.506 0.144c0.108 0.036 0.253 0.072 0.325 0.072 0.108 0 0.181 0 0.253 0.072 0.108 0.036 0.217 0.108 0.325 0.181 0.072 0.072 0.108 0.108 0.072 0.217h0.072c-0.036 0.108-0.181 0.325-0.397 0.614-0.217 0.325-0.47 0.65-0.795 1.047zM642.501 232.942l-218.020 521.355c-10.005 23.948-37.492 35.217-61.44 25.212l-329.053-137.617c-23.911-10.005-35.217-37.492-25.212-61.404l218.056-521.391c9.969-23.911 37.492-35.217 61.404-25.176l329.089 137.653c23.875 9.933 35.145 37.456 25.176 61.368zM112.947 501.638c-17.157 6.177-40.779 20.336-33.014 32.436 7.802 12.136 18.963 1.878 18.963 1.878s-0.253 13.653 13.075 12.57c15.893-1.336 11.811-29.221 0.975-46.884zM125.481 573.119c-0.795-0.867-1.878-1.589-3.287-2.167-0.686-0.289-1.445-0.578-2.239-0.831-0.759-0.253-1.553-0.47-2.384-0.65-0.108-0.072-0.217-0.108-0.325-0.144-0.108 0-0.217-0.072-0.325-0.108-0.939-0.253-1.842-0.542-2.709-0.795-0.831-0.289-1.589-0.578-2.276-0.867-0.686-0.289-1.517-0.686-2.348-1.156-0.903-0.47-1.806-1.011-2.745-1.662-0.181-0.072-0.397-0.144-0.578-0.289-0.217-0.108-0.433-0.253-0.578-0.397-0.795-0.433-1.553-0.831-2.276-1.264-0.686-0.397-1.409-0.759-2.095-1.047-1.409-0.614-2.745-0.831-3.973-0.759-1.264 0.072-2.203 0.867-2.853 2.348-0.47 1.12-0.47 2.059 0.036 2.745 0.506 0.686 1.192 1.228 2.167 1.625 0.397 0.181 0.795 0.325 1.3 0.433 0.506 0.144 1.011 0.289 1.553 0.433 0.036 0 0.108 0 0.108-0.036 0.614 0.181 1.156 0.325 1.625 0.506 0.506 0.108 0.975 0.253 1.336 0.433 0.506 0.217 0.867 0.542 1.12 0.975 0.217 0.433 0.217 0.903 0 1.481l-0.397 0.975-7.26 7.983c-1.12 1.481-2.131 2.167-2.962 2.167s-1.987-0.325-3.359-0.867l-12.75-5.418c-1.3-0.614-2.276-1.156-2.962-1.589-0.65-0.47-0.975-1.336-1.011-2.492l-0.181-10.8c0.072-0.144-0.614-0.289-0.614-0.433 0-0.072 0-0.181 0-0.217 0-0.108 0.795-0.289 0.795-0.433 0.036-0.289 0.433-0.506 0.433-0.686 0-0.181 0.181-0.325 0.217-0.397 0.289-0.686 0.795-1.084 1.409-1.156 0.614-0.072 1.228 0 1.878 0.253 0.361 0.144 0.795 0.361 1.264 0.578 0.47 0.217 0.939 0.506 1.445 0.759 0.072 0 0.108 0.072 0.181 0.072 0.036 0.036 0.144 0.036 0.181 0.072 0.433 0.217 0.831 0.47 1.228 0.686 0.397 0.181 0.795 0.361 1.156 0.542 0.867 0.397 1.806 0.47 2.709 0.253 0.975-0.181 1.698-0.939 2.239-2.203 0.433-1.084 0.181-2.023-0.759-2.745-0.867-0.759-2.095-1.445-3.54-2.023-0.397-0.144-0.795-0.289-1.264-0.506-0.47-0.144-0.867-0.289-1.264-0.433-0.47-0.108-0.903-0.253-1.373-0.433-0.47-0.144-0.867-0.289-1.264-0.47-0.831-0.217-1.662-0.47-2.312-0.722-0.686-0.253-1.228-0.433-1.662-0.65-0.506-0.217-1.12-0.506-1.842-0.795-0.722-0.361-1.481-0.759-2.239-1.228-0.433-0.144-0.903-0.361-1.373-0.614-0.47-0.217-0.867-0.47-1.336-0.722-0.433-0.217-0.831-0.361-1.264-0.578-0.397-0.181-0.795-0.397-1.264-0.578-1.409-0.578-2.673-0.939-3.829-1.12-1.192-0.108-1.95 0.289-2.384 1.3l-0.506 0.903c-0.181 1.047-0.217 1.842-0.036 2.42 0.144 0.614 0.433 1.047 0.831 1.264 0.108 0.072 0.217 0.108 0.289 0.108 0.253 0.108 0.542 5.31 0.867 5.382 0.433 0.108 0.795 5.346 1.156 5.346 0.181 0 0.397 0 0.542 0 0.108 0 0.289-5.057 0.542-5.021 0.181 0.072 0.361-2.384 0.578-2.348 0.181 0.036 0.397-1.156 0.578-1.084 0.217 0.072 0.397-0.47 0.614-0.325 0.181 0.181 0.397 0.036 0.614 0.181 0.397 0.47 4.082 0.939 4.298 1.662 0.144 0.831 3.468 1.589 3.468 2.745v0.072l-5.526 54.902c-0.108 1.156-1.517 2.167-0.903 3.070 0.65 0.867 0.578 1.625 1.553 2.167 0.108 0.036-0.181 0.072-0.108 0.108 0.108 0.036 0 0.072 0.108 0.144 0.072 0 0.036 0.072 0.144 0.108 0.072 0 0.144 0.072 0.253 0.108 1.047 0.397 2.095 0.506 3.106 0.361 1.084-0.181 1.806-0.614 2.276-1.3l37.781-40.671c0.975-1.12 2.059-1.806 3.106-1.987 1.084-0.144 2.131-0.144 3.070 0 0.253 0.108 0.506 0.217 0.831 0.325 0.289 0.072 0.578 0.181 0.795 0.289l2.745 1.12c0.903 0.289 1.734 0.506 2.528 0.506 0.759 0 1.373-0.47 1.734-1.409 0.65-1.336 0.542-2.456-0.253-3.287zM395.766 239.985c-110.816 39.949-263.35 131.115-213.18 209.604 50.207 78.452 122.374 12.281 122.374 12.281s-1.589 88.024 84.521 80.909c102.617-8.524 76.249-188.546 6.285-302.793zM646.041 739.596c0.47-0.181 1.047-0.397 1.95-0.686l11.703-3.756c0.181-0.072 0.397-0.144 0.506-0.217 0.144-0.072 0.325-0.144 0.47-0.217 0.144-0.036 0.253-0.108 0.361-0.181 0.072-0.036 0.144-0.108 0.253-0.108 0.108-0.036 0.253-0.036 0.325-0.036 0.108 0 0.217 0.036 0.217 0.072l0.108-0.036c0 0.144 0.036 0.397 0.036 0.759s0.036 0.759 0.036 1.264c-0.036 0.144-0.036 0.289-0.036 0.433 0 0.144 0.036 0.253 0.108 0.433l-0.542 24.959-14.773-19.938c-0.108-0.217-0.144-0.361-0.217-0.47-0.036-0.072-0.144-0.181-0.253-0.289-0.181-0.289-0.361-0.542-0.47-0.759-0.108-0.181-0.289-0.397-0.289-0.506-0.144-0.253 0-0.542 0.506-0.722zM990.047 702.862l-339.744 108.685c-24.706 7.91-51.11-5.707-59.056-30.377l-172.22-538.223c-7.91-24.706 5.743-51.11 30.413-59.020l339.708-108.721c24.706-7.91 51.11 5.743 59.056 30.413l172.22 538.223c7.91 24.706-5.671 51.11-30.377 59.020zM611.872 722.331l0.217 1.011c0.506 0.903 0.975 1.517 1.553 1.878 0.506 0.361 0.975 0.47 1.481 0.397 0.108-0.036 0.217-0.036 0.253-0.072 0.289-0.072 0.578-0.217 0.831-0.397 0.289-0.181 0.686-0.325 0.939-0.506 0.144-0.108 0.325-0.217 0.47-0.325 0.072-0.036 0.253-0.144 0.397-0.289 0.217-0.072 0.433-0.181 0.614-0.253 0.181-0.108 0.361-0.144 0.578-0.217 0.217-0.036 0.397-0.072 0.65-0.072 0.253-0.036 0.506-0.036 0.795-0.036 0.65 0.072-4.009 0.361-3.323 0.795 0.578 0.397-3.287 1.084-3.287 2.059v0.072l39.226 43.163c0.65 0.939 4.082 1.553 5.165 1.806 1.12 0.289 3.468 0.325 4.587 0.108 0.144-0.036 0.867-0.072 0.975-0.108 0.072-0.036 0.578-0.036 0.686-0.108 0.036 0 0.289-0.036 0.397-0.072 0.108 0 0.325-0.072 0.47-0.108 1.011-0.433 1.95-1.011 2.637-1.806 0.722-0.795 1.047-1.625 0.903-2.42l2.42-55.48c0-1.517 0.361-2.709 1.047-3.54 0.722-0.867 1.481-1.517 2.312-2.023 0.289-0.072 0.542-0.181 0.795-0.289 0.325-0.144 0.614-0.253 0.831-0.325l2.853-0.867c0.831-0.397 1.589-0.795 2.167-1.264 0.686-0.47 0.831-1.192 0.506-2.203-0.506-1.445-1.3-2.239-2.42-2.348-1.156-0.108-2.456 0.036-3.829 0.506-0.759 0.217-1.517 0.506-2.276 0.795-0.759 0.325-1.517 0.65-2.239 1.047-0.181 0.036-0.253 0.072-0.361 0.108-0.144 0.036-0.253 0.072-0.397 0.108-0.831 0.397-1.734 0.795-2.528 1.12-0.795 0.361-1.589 0.65-2.276 0.867-0.759 0.217-1.553 0.433-2.565 0.65-0.939 0.181-2.023 1.77-3.142 1.914-0.144 0.036-0.361 1.553-0.614 1.553s-0.433 0-0.686 0c-0.867 0-1.698-0.939-2.528-0.795-0.759 0.181-1.553-0.361-2.276-0.108-1.481 0.47-2.601 0.795-3.54 1.662-0.903 0.867-1.084 1.914-0.614 3.468 0.361 1.156 0.903 1.77 1.806 1.987 0.759 0.217 1.698 0.108 2.673-0.181 0.397-0.144 0.759-0.325 1.264-0.542 0.47-0.217 0.975-0.433 1.481-0.686 0.036 0 0.072-0.072 0.072-0.144 0.542-0.253 1.084-0.506 1.517-0.722 0.47-0.217 0.903-0.397 1.264-0.542 0.578-0.144 1.047-0.144 1.481 0 0.47 0.181 0.759 0.578 0.975 1.156l0.289 0.975-0.325 10.8c0.072 1.842-0.181 2.998-0.795 3.54-0.686 0.578-1.734 1.047-3.179 1.517l-13.22 4.226c-1.373 0.397-2.42 0.614-3.251 0.722-0.831 0.072-1.625-0.325-2.384-1.264l-6.574-8.597c-0.036-0.144-0.108-0.253-0.144-0.325-0.108-0.072-0.144-0.144-0.144-0.217-0.036-0.108-0.108-0.217-0.217-0.325-0.144-0.253-0.289-0.433-0.397-0.614-0.144-0.144-0.217-0.253-0.217-0.289-0.253-0.722-0.181-1.3 0.253-1.77 0.361-0.433 0.867-0.759 1.553-0.975 0.361-0.108 0.795-0.217 1.336-0.361 0.506-0.108 1.011-0.253 1.553-0.325 0.036-0.036 0.144-0.036 0.217-0.072 0.036 0 0.144-0.036 0.181-0.036 0.506-0.072 0.939-0.181 1.336-0.253 0.506-0.108 0.903-0.217 1.264-0.361 0.903-0.289 1.625-0.795 2.239-1.589 0.65-0.759 0.759-1.806 0.253-3.106-0.361-1.12-1.12-1.662-2.276-1.589-1.264 0.036-2.565 0.289-4.082 0.759-0.397 0.108-0.831 0.289-1.264 0.47-0.47 0.144-0.867 0.325-1.228 0.47-0.47 0.217-0.903 0.397-1.3 0.578-0.47 0.181-0.903 0.325-1.3 0.47-0.759 0.397-1.517 0.722-2.203 0.975-0.759 0.217-1.264 0.433-1.734 0.578-0.542 0.144-1.12 0.361-1.914 0.542-0.759 0.217-1.589 0.397-2.492 0.542-0.47 0.144-0.903 0.289-1.409 0.397s-0.975 0.217-1.481 0.289c-0.47 0.144-0.867 0.253-1.336 0.361-0.397 0.108-0.831 0.217-1.336 0.361-1.409 0.47-2.601 1.011-3.648 1.662-1.047 0.578-1.3 1.409-1.011 2.456zM624.441 681.66c-2.384 4.804 2.998 20.227 14.52 16.507 11.45-3.684 9.427-15.495 2.492-21.708 12.1-1.12 14.448-16.976 3.756-22.214-10.691-5.237-16.435 5.526-16.435 5.526s-0.036 0-0.072 0.036l-2.276-8.886-3.504 1.084 3.179 8.416c-8.488-3.106-18.349-0.47-17.338 11.594 1.12 13.184 15.676 9.644 15.676 9.644zM803.596 309.372c-60.284-29.040-100.269 33.808-100.269 33.808s-0.253 0.072-0.542 0.144l-13.473-54.108-21.6 6.646 19.252 51.471c-51.832-19.035-113.597 8.597-107.926 72.023 7.080 79.97 97.813 57.069 97.813 57.069-14.845 29.293 18.457 123.386 88.566 100.738 69.784-22.503 57.611-94.454 15.243-132.307 73.54-7.007 88.349-103.917 22.936-135.486z" />
<glyph unicode="&#xe635;" d="M697.982 72.425h-127.142v254.393h127.142v5.888c-40.274 18.060-52.302 25.248-52.302 25.248l-0.903 94.815c0 0 36.987 28.426 48.509 117.606 23.153-6.718 47.462 34.495 48.762 56.275 1.3 20.913-3.179 78.994-31.388 73.143 5.743 43.705 9.897 83.040 7.91 103.845-7.405 76.069-82.353 156.363-197.612 156.363-115.259 0-190.244-80.295-197.576-156.435-2.059-20.805 2.131-60.14 7.874-103.845-28.174 5.851-32.689-52.193-31.388-73.107 1.336-21.78 25.573-62.993 48.798-56.275 11.45-89.216 48.473-117.606 48.473-117.606l-0.939-94.815c0 0-23.406-14.303-122.194-55.408-98.824-41.213-198.623-69.964-228.314-116.306-26.62-41.466-18.638-240.956-18.638-240.956h670.928v127.178zM761.589 390.353h127.178v-381.535h-127.178v381.535zM634.374 263.174h381.535v-127.178h-381.535v127.178z" />
<glyph unicode="&#xe636;" d="M963.644 195.449c-28.174 43.994-122.736 71.301-216.431 110.274-93.587 39.010-115.837 52.627-115.837 52.627l-0.759 89.758c0 0 35 26.982 45.908 111.394 21.997-6.321 44.969 32.725 46.234 53.385 1.192 19.866-3.106 74.913-29.763 69.314 5.382 41.466 9.427 78.669 7.513 98.391-7.043 72.204-78.055 148.272-187.282 148.272s-180.383-76.105-187.282-148.272c-1.95-19.758 2.023-56.925 7.477-98.391-26.765 5.562-30.991-49.484-29.763-69.35 1.264-20.661 24.236-59.706 46.197-53.385 10.872-84.412 45.981-111.394 45.981-111.394l-0.903-89.758c0 0-22.178-13.617-115.837-52.627-93.587-38.973-188.185-66.28-216.358-110.274-25.248-39.262-17.663-228.278-17.663-228.278h936.12c0.072 0.036 7.657 189.052-17.554 228.314z" />
<glyph unicode="&#xe637;" d="M1017.607 752.635c-16.001-34.025-42.838-59.49-71.517-81.848-19.866-15.495-26.115-31.424-26.44-56.311-3.937-257.752-177.963-527.64-486.824-581.423-144.082-25.067-281.013-2.528-408.733 70.542-6.718 3.756-13.364 7.73-20.047 11.594 49.954 0.65 99.98-0.433 148.959 12.642 55.841 14.99 107.24 38.468 155.677 76.105-95.176 9.969-159.397 56.853-194.217 146.322 30.557-2.926 58.839-4.515 90.336 3.756-102.219 32.689-157.338 100.088-165.032 208.99 30.341-13.184 58.659-24.020 91.781-25.139-91.022 77.875-111.972 169.98-61.693 281.121 34.603-40.057 69.423-74.66 109.227-103.881 91.889-67.436 194.397-106.265 308.175-115.439 12.642-1.047 16.435-0.036 14.159 15.134-13.364 89.361 30.846 175.723 109.552 217.55 77.911 41.393 172.509 29.582 239.656-31.063 9.825-8.886 18.421-10.511 30.305-7.405 38.179 9.789 74.407 24.489 114.139 45.981-16.435-50.568-46.197-84.34-86.832-113.38 40.274 2.131 74.046 17.229 109.371 26.151z" />
<glyph unicode="&#xe638;" d="M945.259 610.793h-558.811c-25.501 0-46.161-23.911-46.161-53.385v-544.472c0-29.438 20.661-53.385 46.161-53.385h558.811c25.537 0 46.197 23.911 46.197 53.385v544.472c0 29.474-20.661 53.385-46.197 53.385zM481.37 24.747c-35.975 0-65.124 29.149-65.124 65.124 0 35.939 29.149 65.124 65.124 65.124 35.975 0 65.124-29.185 65.124-65.124 0-35.975-29.185-65.124-65.124-65.124zM481.37 209.247c-35.975 0-65.124 29.185-65.124 65.124 0 36.012 29.149 65.124 65.124 65.124 35.975 0 65.124-29.113 65.124-65.124 0-35.975-29.185-65.124-65.124-65.124zM481.37 398.082c-35.975 0-65.124 29.149-65.124 65.124s29.149 65.124 65.124 65.124c35.975 0 65.124-29.149 65.124-65.124 0-35.975-29.185-65.124-65.124-65.124zM863.411 24.747c-36.012 0-65.124 29.149-65.124 65.124 0 35.939 29.113 65.124 65.124 65.124 35.903 0 65.124-29.185 65.124-65.124 0-35.975-29.221-65.124-65.124-65.124zM863.411 209.247c-36.012 0-65.124 29.185-65.124 65.124 0 36.012 29.113 65.124 65.124 65.124 35.903 0 65.124-29.113 65.124-65.124 0-35.975-29.221-65.124-65.124-65.124zM863.411 393.748c-36.012 0-65.124 29.149-65.124 65.124s29.113 65.124 65.124 65.124c35.903 0 65.124-29.149 65.124-65.124s-29.221-65.124-65.124-65.124zM277.329 615.127c0 23.984 19.433 43.452 43.416 43.452h358.201v220.115c0 29.474-20.697 53.385-46.197 53.385h-558.884c-25.501 0-46.197-23.911-46.197-53.385v-544.4c0-29.474 20.697-53.421 46.197-53.421h203.427v334.254zM550.829 845.247c35.939 0 65.124-29.149 65.124-65.124s-29.185-65.124-65.124-65.124c-35.975 0-65.124 29.149-65.124 65.124s29.149 65.124 65.124 65.124zM168.788 849.581c35.975 0 65.124-29.149 65.124-65.124s-29.185-65.124-65.124-65.124-65.124 29.185-65.124 65.124 29.149 65.124 65.124 65.124zM168.788 345.997c-35.975 0-65.124 29.149-65.124 65.124 0 35.939 29.185 65.124 65.124 65.124s65.124-29.185 65.124-65.124c0-35.975-29.185-65.124-65.124-65.124z" />
<glyph unicode="&#xe639;" d="M513.264 914.381l154.051-312.185 344.548-50.062-249.336-243.015 58.839-343.103-308.103 161.998-308.139-161.998 58.839 343.103-249.3 243.015 344.548 50.062z" />
<glyph unicode="&#xe63a;" d="M180.6 831.305l165.104-241.57c0 0-76.502-48.328-84.593-104.712 8.091-72.457 32.219-108.685 84.593-161.059 44.428-44.428 112.839-107.529 161.059-104.676 68.483 4.045 128.84 100.666 128.84 100.666l237.525-169.114c0 0-75.996-137.653-177.132-144.371-120.785-8.055-322.118 96.043-459.048 240.992-136.895 144.985-215.997 306.261-209.351 402.665 8.019 116.776 96.585 165.068 153.004 181.178zM625.814 872.698c226.4-52.266 367.52-278.16 315.291-504.487-9.391-40.671-24.453-78.525-43.994-112.983 42.080 48.473 73.287 107.601 88.747 174.495 50.423 218.453-85.785 436.365-304.166 486.788-129.129 29.799-258.041-5.635-352.314-84.701 87.338 47.823 191.797 65.052 296.436 40.888zM541.799 887.76h72.24v-72.24h-72.24v72.24zM866.878 562.681h72.24v-108.36h-72.24v108.36zM408.589 568.604c0.325 25.609 3.142 45.981 15.423 61.079s32.291 23.189 65.991 23.189c65.305 0 80.042-30.557 80.042-67.761 0-33.7-12.281-55.083-30.883-73.721l-38.612-37.601c-5.599-5.599-13.689-12.967-16.146-20.336h85.64v-49.123h-163.587c0 34.747 8.777 65.63 37.204 95.14l43.525 44.247c12.642 12.642 17.554 22.105 17.554 40.707 0 21.058-6.682 27.74-16.832 27.74-9.138 0-18.241-4.912-18.241-33.014v-10.547h-61.079zM587.924 499.796l78.669 148.128h70.903v-150.223h21.78v-47.064h-21.78v-46.342h-61.043v46.342h-88.494v49.159zM678.549 497.701v82.823h-0.759l-40.743-82.823h41.502z" />
<glyph unicode="&#xe63b;" d="M580.989 436.044l220.079-74.696 221.993 193.097-368.496 32.4-144.66 340.466-144.696-340.466-368.496-32.4 279.099-242.762-83.076-360.477 317.169 190.388 288.598-173.267z" />
<glyph unicode="&#xe63c;" d="M719.69 737.357c-104.603 73.721-194.181 177.24-204.981 219.248-12.606-42.874-93.045-143.577-206.064-217.189-116.559-75.852-291.596-146.864-290.26-336.746 2.312-333.676 342.309-410.033 481.37-146.972-3.829-87.627-26.801-249.191-107.059-268.805-7.116-1.698-14.556-11.486-7.332-16.037 55.986-35.145 227.592-21.708 253.598-16.037 31.569 6.791 14.448 22.467 12.389 23.586-61.368 33.158-114.897 146.647-119.738 271.152 136.931-244.676 476.097-180.13 478.408 151.090 1.3 189.846-175.904 256.163-290.332 336.71z" />
<glyph unicode="&#xe63d;" d="M364.811 471.081c116.415 57.828 232.721 115.692 348.702 174.387 14.629 7.405 25.103 6.357 38.323-3.215 32.363-23.514 80.656-35.072 120.857-28.065 74.515 12.931 95.826 54.541 138.701 131.188 0 12.245 0 24.562 0 36.806 0 15.243-14.773 37.745-21.961 52.41-24.525 49.231-74.552 89.288-130.032 89.288-12.317 0-24.562 0-36.842 0-15.279 0-31.316-9.68-46.017-16.832-56.275-27.56-83.256-77.513-86.832-138.195-1.011-17.085-6.502-27.885-21.744-35.434-115.981-57.25-231.601-115.981-347.076-174.387-14.665-7.368-24.995-6.61-38.251 2.998-32.363 23.333-74.118 34.856-114.32 27.776-74.624-13.039-96.079-54.613-132.199-131.332 0-12.281 0-24.525 0-36.806 0-63.679 46.234-104.134 105.434-124.794 49.737-17.338 98.21-7.188 140.073 22.647 12.064 8.56 22.9 9.861 36.373 3.106 116.559-58.839 234.021-117.101 350.941-175.326 10.872-5.49 19.36-21.094 20.083-35.686 4.334-88.963 48.184-101.569 133.535-162.973 12.281 0 24.525 0 36.842 0 15.243 0 42.91 13.437 57.539 20.624 49.268 24.489 94.417 73.179 94.417 128.659 0 12.317 0 24.562 0 36.842 0 15.279-15.134 31.099-21.961 46.017-38.395 84.34-154.088 113.489-230.265 58.225-14.376-10.439-28.426-11.631-44.391-3.612-115.367 58.478-232.612 116.126-348.449 173.629-13.834 6.863-20.661 15.134-20.661 31.027-0.036 15.893 5.346 24.164 19.18 31.027z" />
<glyph unicode="&#xe63e;" d="M422.278 960.217c-227.953 0-412.742-184.79-412.742-412.742 0-227.989 184.79-412.742 412.742-412.742 227.989 0 412.742 184.753 412.742 412.742 0 227.953-184.753 412.742-412.742 412.742zM422.278 255.156c-161.42 0-292.319 130.826-292.319 292.282s130.899 292.319 292.319 292.319c161.492 0 292.319-130.863 292.319-292.319s-130.826-292.282-292.319-292.282zM623.676 240.085l100.845 100.873 295.646-295.563-100.845-100.873-295.646 295.563z" />
<glyph unicode="&#xe63f;" d="M282.024 20.737h465.369l59.67-84.159h-587.924l62.885 84.159zM377.345 374.171h41.321c30.557 29.474 49.015 71.77 53.205 129.165h-7.766c-12.895 0-23.442 10.583-23.442 23.478v0c0 12.895 10.547 23.442 23.442 23.442h12.245c-24.309 22.575-45.258 47.534-62.921 74.949l-9.572-16.29c-55.011 32.4-109.66 65.269-152.318 114.681-43.236 50.134-73.215 116.126-76.972 213.469l-0.867 22.936 172.617-39.731c0.433 7.802 0.939 15.712 1.625 23.731h330.75c0.65-7.802 1.12-15.495 1.553-23.117l7.043 1.589 163.009 37.529-0.903-22.936c-3.756-97.343-33.736-163.334-76.972-213.469-42.622-49.412-97.343-82.281-152.318-114.681l-8.308 14.195c-17.338-26.584-37.89-50.821-61.512-72.854h11.233c12.895 0 23.406-10.547 23.406-23.442v0c0-12.895-10.511-23.478-23.406-23.478h-6.791c4.154-57.395 22.647-99.691 53.205-129.165h42.766l10.583-33.917h-294.486l10.547 33.917zM681.186 884.798c0.289-88.277-16.651-164.165-49.954-228.278 42.26 25.681 82.751 53.241 114.5 90.119 35 40.527 60.176 93.117 67.002 168.608l-96.585-22.178 10.366-22.358-31.93-14.773-13.4 28.86zM396.488 654.209c-34.82 65.991-52.157 144.516-51.146 236.297l-15.965-34.567-31.966 14.737 10.294 22.358-96.512 22.214c6.791-75.491 32.002-128.081 66.966-168.608 32.761-37.962 74.732-66.099 118.329-92.431v0zM381.607 911.96c-0.686-46.27 1.662-91.022 10.619-133.68 9.030-43.308 24.923-84.448 51.363-122.808 4.407-6.429 13.184-8.019 19.577-3.612 6.393 4.443 8.019 13.22 3.612 19.577-24.092 34.964-38.612 72.709-46.956 112.55-8.488 40.527-10.655 83.293-10.041 127.648 0.072 7.766-6.14 14.159-13.906 14.231-7.766 0.108-14.159-6.104-14.267-13.906v0zM302.938 312.008h417.041v-268.407h-417.041v268.407zM395.694 257.684c-16.904 0-30.702-13.834-30.702-30.774v-100.197c0-16.94 13.798-30.81 30.702-30.81h231.204c16.868 0 30.774 13.87 30.774 30.81v100.197c0 16.94-13.906 30.774-30.774 30.774h-231.204z" />
<glyph unicode="&#xe640;" d="M976.863 613.104h-299.434v299.434c0 21.816-14.773 40.635-33.014 40.635h-264.145c-18.241 0-33.014-18.818-33.014-40.635v-299.434h-298.351c-21.816 0-41.719-14.773-41.719-33.014v-264.145c0-18.241 19.938-32.977 41.719-32.977h298.351v-298.387c0-21.816 14.773-41.719 33.014-41.719h264.145c18.241 0 33.014 19.938 33.014 41.719v298.387h299.434c21.816 0 40.635 14.737 40.635 32.977v264.145c0 18.241-18.855 33.014-40.635 33.014zM155.171 357.736c-49.846 0-90.228 40.418-90.228 90.264s40.382 90.228 90.228 90.228c49.846 0 90.264-40.382 90.264-90.228-0.036-49.846-40.418-90.264-90.264-90.264zM512.361 897.585c49.846 0 90.264-40.382 90.264-90.228s-40.418-90.264-90.264-90.264-90.228 40.418-90.228 90.264 40.382 90.228 90.228 90.228zM512.361 0.582c-49.846 0-90.228 40.418-90.228 90.264 0 49.809 40.382 90.228 90.228 90.228s90.264-40.418 90.264-90.228c0-49.809-40.454-90.264-90.264-90.264zM509.074 292.793c-83.907 0-151.92 68.014-151.92 151.92 0 83.834 68.014 151.848 151.92 151.848 83.87 0 151.848-68.014 151.848-151.848 0-83.907-67.978-151.92-151.848-151.92zM871.718 357.736c-49.882 0-90.228 40.418-90.228 90.264s40.346 90.228 90.228 90.228c49.846 0 90.228-40.382 90.228-90.228 0-49.846-40.382-90.264-90.228-90.264zM594.895 444.713c0-47.418-38.44-85.857-85.857-85.857s-85.857 38.44-85.857 85.857c0 47.418 38.44 85.857 85.857 85.857 47.418 0 85.857-38.44 85.857-85.857z" />
<glyph unicode="&#xe641;" d="M511.964 941.94c-273.067 0-494.41-221.343-494.41-494.41s221.343-494.41 494.41-494.41 494.41 221.343 494.41 494.41-221.379 494.41-494.41 494.41zM511.964 82.502c-201.621 0-365.028 163.443-365.028 365.028 0 201.621 163.443 365.028 365.028 365.028 201.585 0 365.028-163.443 365.028-365.028 0-201.585-163.443-365.028-365.028-365.028zM731.32 447.53c0-121.147-98.209-219.356-219.356-219.356-121.147 0-219.356 98.209-219.356 219.356 0 121.147 98.209 219.356 219.356 219.356 121.147 0 219.356-98.209 219.356-219.356z" />
<glyph unicode="&#xe642;" d="M1016.487 493.475v-96.982h-1005.976v96.982h1005.976zM561.99-58.004h-96.946v1005.976h96.946v-1005.976z" />
<glyph unicode="&#xe643;" d="M713.585 642.145c-89.18-61.223-178.396-122.447-267.54-183.706-42.947-29.546-85.821-59.164-128.551-89.072-8.055-5.599-15.134-8.163-25.573-5.526-93.912 23.333-187.968 45.945-282.024 68.736-4.479 1.047-9.825 0.614-9.283 7.585 3.54 8.271 11.703 10.583 18.746 14.123 324.14 162.215 648.389 324.249 972.674 486.21 9.897 4.948 19.902 11.414 31.966 6.538 0-2.673 0-5.346 0-8.055-15.712-33.158-22.033-69.278-31.822-104.242-76.899-274.403-153.221-548.915-229.759-823.426-1.156-4.262-2.998-8.344-5.093-14.087-6.032 5.454-11.017 9.789-15.784 14.303-103.484 98.066-206.75 196.42-310.776 293.908-11.847 11.089-9.391 16.182 0.217 26.223 91.997 96.368 183.525 193.169 275.126 289.862 4.551 4.804 8.669 10.041 13.003 15.062 3.468 7.188 1.084 8.488-5.526 5.562zM378.176-52.731c0 105.181 0 205.667 0 309.692 48.22-46.486 94.092-90.95 140.326-135.089 7.080-6.791 1.625-10.439-2.095-14.773-45.042-52.157-90.119-104.242-138.231-159.831z" />
<glyph unicode="&#xe644;" d="M175.507 740.355h674.467v-108.865h-674.467v108.865zM175.507 514.425h674.467v-108.865h-674.467v108.865zM175.507 288.458h674.467v-108.865h-674.467v108.865z" />
<glyph unicode="&#xe645;" d="M325.079 526.561v124.397c0 117.968 62.668 221.524 180.6 221.524 117.968 0 180.6-95.573 180.6-213.541v-132.38h108.36v131.874c0 163.045-125.95 295.208-288.959 295.208-163.045 0-288.959-132.163-288.959-295.208v-131.874h108.36zM895.305 562.681h-773.183l6.249-556.030 776.615-60.609-9.68 616.639zM577.919 183.422c0-49.882-40.418-90.3-90.3-90.3v0c-49.882 0-90.3 40.418-90.3 90.3v108.36c0 49.882 40.418 90.3 90.3 90.3v0c49.882 0 90.3-40.418 90.3-90.3v-108.36z" />
<glyph unicode="&#xe646;" d="M1008.035 723.956c-8.886 115.548-117.281 223.907-232.829 232.793 0 1.192-0.325 2.276-0.975 3.251-6.61 0-13.148 0-19.758 0-9.211 0-18.421 0-27.668 0-7.91 0-15.784 0-23.659 0 0.108-0.433 0.361-0.867 0.289-1.264-0.181-0.831-0.578-1.553-0.867-2.348-60.465-6.971-111.177-33.844-154.16-76.141-34.169-33.736-67.978-67.869-101.894-101.894-5.743-5.779-11.161-11.811-19.107-20.263 53.927 1.445 103.014-4.732 150.114-22.864 8.163-3.142 11.92 2.601 16.543 7.188 16.254 16.29 32.291 32.869 48.979 48.69 55.48 52.518 141.771 51.724 196.023-1.517 54.649-53.638 57.106-141.879 3.395-197.251-61.368-63.282-123.819-125.589-187.101-186.993-35.398-34.386-79.139-45.186-127.612-34.675-46.197 10.005-77.586 38.793-99.908 81.776-27.379-27.596-52.916-55.083-80.475-80.367-13.075-11.956-11.342-19.396-1.625-31.894 93.117-119.99 274.186-140.001 387.711-38.504 75.021 67.002 145.13 139.604 213.649 213.324 35.145 37.818 54.975 84.412 60.501 136.353l1.77 0.867 1.987-0.325c0 7.91 0 15.821 0 23.695 0 9.211 0 18.421 0 27.668 0 6.574 0 13.148 0 19.758 0 0.289-2.239 0.614-3.323 0.939zM505.932 154.634c-24.706 3.793-48.943 9.608-72.24 18.891-8.127 3.251-11.956-2.601-16.543-7.188-16.29-16.254-32.291-32.833-49.015-48.69-55.48-52.518-141.771-51.724-196.023 1.553-54.649 53.674-57.069 141.915-3.359 197.251 61.404 63.282 123.819 125.625 187.137 186.993 36.012 34.892 80.511 45.692 129.526 34.206 45.005-10.547 76.43-38.54 97.885-81.306 27.848 28.065 54.035 55.805 81.884 81.812 11.522 10.764 9.933 17.59 1.409 28.788-97.126 127.214-285.673 141.41-402.376 28.643-63.896-61.693-126.348-124.903-188.474-188.402-40.635-41.502-65.594-91.42-72.168-149.753-1.047-1.011-2.239-1.192-3.576-0.578 0-7.91 0-15.821 0-23.695 0-9.211 0-18.421 0-27.632 0-6.61 0-13.184 0-19.758 1.084-0.325 2.167-0.65 3.251-0.939 8.922-115.584 117.245-223.944 232.793-232.865 0-1.192 0.325-3.323 0.975-3.323 6.61 0 13.184 0 19.758 0 9.211 0 18.457 0 27.668 0 7.91 0 15.821 0 23.695 0-0.108 0-0.397 0.939-0.289 1.336 0.181 0.795 0.542 1.589 0.831 2.348 60.501 6.935 111.213 33.844 154.16 76.141 34.206 33.772 68.014 67.905 101.93 101.894 5.707 5.743 11.161 11.811 19.035 20.227-28.571-0.614-53.349 0.253-77.875 4.045z" />
<glyph unicode="&#xe647;" d="M469.559 960h108.36v-108.36h-108.36v108.36zM469.559 57.002h108.36v-108.36h-108.36v108.36zM768.885 598.801l0.867-14.303c1.192 45.728-14.159 93.551-45.8 126.745l-69.17-112.441h114.103zM367.484 462.954c25.067-19.433 58.334-37.059 99.366-52.952l53.602 93.551c-24.525 9.427-43.669 18.53-56.275 27.198-19.433 13.509-29.149 30.738-29.149 51.688 0 22.972 9.066 41.827 27.198 56.564 18.132 14.737 43.813 22.105 76.972 22.105 25.248 0 46.27-4.84 63.282-14.303l50.423 87.988c-32.4 13.798-69.603 20.733-111.574 20.733-67.183 0-122.41-16.109-165.646-48.256-43.272-32.183-64.835-73.685-64.835-124.397s18.891-90.733 56.636-119.918zM342.164 187.539l72.709 122.302h-119.268l-0.867-0.144c-1.156-50.676 14.881-89.686 47.425-122.158zM720.051 412.819c-28.101 24.923-67.039 45.908-116.378 63.029l-53.674-93.659c33.88-11.269 58.623-23.153 73.251-35.686 16.868-14.448 25.32-33.592 25.32-57.395 0-23.297-8.958-41.827-26.801-55.733-17.879-13.906-43.669-20.841-77.441-20.841-33.23 0-60.104 6.177-81.234 17.952l-49.015-85.604c39.118-17.446 82.462-26.331 130.248-26.331 68.592 0 123.819 15.351 165.646 45.908s62.704 72.457 62.704 125.481c0.036 50.712-17.518 91.636-52.627 122.88z" />
<glyph unicode="&#xe648;" d="M434.956-13.035c-16.543 7.621-32.472 17.554-47.425 29.727-75.093 61.368-82.028 199.418-60.429 285.022 5.671 22.394 12.028 44.102 13.112 67.111 2.023 42.983-14.52 94.309-44.969 125.011-11.558 11.631-44.572 52.013-61.693 49.737 39.84 5.382 68.447 4.696 103.159-6.827 33.7-11.233 66.533-30.702 91.889-54.288 13.328-12.389 25.356-25.97 37.312-39.624 11.306-12.859 27.848-25.139 35.939-40.707-16.362 31.533-25.573 67.219-39.443 99.944-13.906 32.797-35.723 60.176-51.001 92.142-53.205 111.358 25.717 230.012 95.718 313.449 10.439 12.425 22.25 21.636 34.097 32.436-6.863-28.824-3.142-45.511 0.036-68.447 3.106-22.178 6.899-44.247 13.473-65.702 47.353-154.629 207.292-244.424 251.72-399.848 45.15-158.097-51.363-321.937-183.092-406.060-19.18-12.245-40.057-21.491-62.307-26.657-42.188-9.789-86.832-4.479-126.095 13.581zM740.025 814.473c-18.566-34.422-25.826-70.723-17.049-108.143 4.226-18.168 16.832-42.080-8.019-53.891-18.71-8.886-42.116 9.789-52.085 24.092-33.953 48.509 35.867 123.097 79.97 139.423-0.975-0.361-2.312-0.506-2.817-1.481z" />
<glyph unicode="&#xe649;" d="M650.159 779.4h361.199v-72.24h-361.199v72.24zM794.638 923.88h72.24v-325.079h-72.24v325.079zM586.949 314.356c-24.056 29.618-53.385 53.602-83.979 76.069-21.094 15.495-41.827 31.497-58.623 51.724-23.406 28.21-23.478 52.518-1.12 81.27 13.003 16.724 29.835 29.221 45.981 42.369 72.312 58.803 95.862 136.461 67.219 222.029-12.064 35.831-33.411 65.088-65.702 88.024 26.368 4.84 53.132-7.080 73.36 6.249 20.155 13.328 34.928 34.892 52.049 52.807 1.336 1.445 2.637 2.89 3.973 4.298-2.528 11.306-14.881 7.513-20.624 7.513-89.325 0.397-170.269-0.144-259.558 0-7.007 0-46.667-1.047-51.11-1.336-73.504-4.732-134.872-33.519-180.672-92.25-34.169-43.85-45.764-94.165-42.983-149.103 3.648-71.554 33.555-127.792 93.659-167.308 37.637-24.742 79.97-34.422 124.144-38.251 21.455-1.878 21.275-2.492 16.543-23.478-6.646-29.366-2.89-57.069 14.376-82.462 3.323-4.876 8.705-8.886 9.933-15.965-63.138-2.276-124.253-8.633-182.189-30.955-73.685-28.39-128.659-74.19-137.725-159.036-3.215-18.421-3.215-36.734 0-54.902 2.276-27.885 11.342-52.88 30.052-74.263 30.341-34.856 67.833-58.442 110.888-74.335 40.671-15.026 82.39-20.588 125.156-24.164 24.236-2.709 73.829 0.108 79.067 0.108 53.024 4.515 138.809 25.645 191.761 62.451 101.461 70.542 121.76 199.418 46.125 292.897zM312.907 549.605c-77.044 22.683-115.114 80.511-132.416 155.063-3.54 15.279-4.985 30.919-4.407 45.331-0.722 28.463 4.045 54.469 15.315 79.247 30.846 67.978 101.605 89.65 164.346 49.123 51.182-33.086 77.152-83.545 90.806-140.976 8.705-36.445 11.306-73.36 1.3-110.346-17.41-64.474-70.651-96.404-134.944-77.441zM443.914 33.777c-73.323-33.592-149.862-37.312-226.436-8.271-24.056 9.138-44.969 23.478-63.029 42.007-63.571 64.908-55.48 155.424 19.071 212.421 40.888 31.28 94.056 48.040 174.965 47.859 32.797-0.397 84.376-13.292 127.648-50.496 84.485-72.746 69.061-197.034-32.219-243.521z" />
<glyph unicode="&#xe64a;" d="M473.629 313.269l71.857-14.606-31.025-152.634-71.857 14.606 31.025 152.634zM506.885 309.198l69.144 24.409 51.861-146.905-69.144-24.409-51.861 146.905zM397.319 598.801h108.36v-72.24h-108.36v72.24zM45.078 765.711l-39.696-375.647 455.075 48.87 6.104 290.115-421.483 36.662zM416.643 466.024l-366.256-39.371 31.93 302.396 339.238-29.474-4.912-233.551zM991.889 838.998l-497.841-134.366 6.104-268.732 522.294-9.211-30.557 412.309zM568.961 479.208l-4.479 197.106 365.064 98.535 22.43-302.396-383.016 6.754zM505.173 759.245l285.167 70.47c-74.949 55.986-168.427 88.277-269.238 85.749-105.109-2.637-200.429-42.622-273.789-106.843l257.86-49.376zM478.77 399.238l-407.433-72.998c52.121-180.13 218.2-311.823 415.054-311.823 207.437 0 380.704 146.177 422.495 341.117l-430.116 43.705zM532.191 107.859c-120.135 0-220.187 85.929-242.076 199.671 51.435-59.345 140.615-98.644 242.076-98.644 101.533 0 190.677 39.335 242.112 98.644-21.889-113.742-121.905-199.671-242.112-199.671zM732.259 710.736c-50.568 0-91.636-41.032-91.636-91.636s41.068-91.636 91.636-91.636c50.604 0 91.6 41.032 91.6 91.636 0.036 50.604-40.96 91.636-91.6 91.636zM704.772 657.279c0 14.303 16.435 25.97 36.698 25.97s36.662-11.631 36.662-25.97c0-14.34-24.706-25.97-44.897-25.97-0.939 0-10.836 0.144-10.836 0.181 0-0.036 0-0.108 0-0.144 0-8.452 0.542-15.279-9.066-15.279-9.644 0-13.22 6.827-13.22 15.279 0 4.804 4.623 9.030 8.56 11.847-3.72 4.009-3.901 8.886-3.901 14.087zM733.776 555.312c-22.756 0-41.719 16.29-45.908 37.818 9.752-11.233 26.693-18.674 45.908-18.674 19.216 0 36.12 7.441 45.908 18.674-4.118-21.527-23.153-37.818-45.908-37.818zM180.6 695.096l212.096-113.453-212.096-113.453z" />
<glyph unicode="&#xe64b;" d="M284.228-57.39l362.066 505.426-362.066 505.39h93.406l362.102-505.39-362.102-505.426h-93.406z" />
<glyph unicode="&#xe64c;" d="M117.209 887.76l352.35-500.875v-398.8l108.36 67.111v331.689l338.624 500.875z" />
<glyph unicode="&#xe64d;" d="M286.756 173.163h452.005c20.48 0 37.095 16.362 37.095 36.517v106.771c0 20.155-16.615 36.517-37.095 36.517h-129.020c-20.516 0-37.131 16.326-37.131 36.517v189.666c0 20.155 15.821 42.405 32.363 54.252 39.587 28.137 65.341 73.865 65.341 125.589 0 85.568-70.542 154.954-157.555 154.954-87.049 0-157.555-69.386-157.555-154.954 0-51.688 25.754-97.415 65.305-125.589 16.651-11.811 32.363-34.097 32.363-54.252v-189.666c0-20.191-16.615-36.517-37.131-36.517h-128.948c-20.516 0-37.167-16.362-37.167-36.517v-106.771c-0.036-20.155 16.615-36.517 37.131-36.517zM893.174 312.659h-26.657c-20.444 0-37.095-16.362-37.095-36.517v-106.698c0-20.191-16.615-36.553-37.095-36.553h-556.030c-20.48 0-37.131 16.362-37.131 36.553v106.698c0 20.155-16.615 36.517-37.131 36.517h-26.62c-20.48 0-37.095-16.362-37.095-36.517v-221.379c0-20.227 16.615-36.553 37.095-36.553h1.409c20.48 0 37.131-8.091 37.131-18.060 0-10.005 16.615-18.096 37.095-18.096h60.212c20.48 0 37.131 8.091 37.131 18.096 0 9.969 16.651 18.060 37.131 18.060h325.946c20.48 0 37.131-8.091 37.131-18.060 0-10.005 16.651-18.096 37.131-18.096h60.176c20.444 0 37.131 8.091 37.131 18.096 0 9.969 16.579 18.060 37.131 18.060h12.931c20.444 0 37.095 16.326 37.095 36.553v221.379c0.072 20.155-16.579 36.517-37.023 36.517z" />
<glyph unicode="&#xe64e;" d="M577.305 949.345c9.391-0.108 18.71-0.217 28.065-0.325 52.518-0.108 105.073-0.217 157.591-0.289 0-57.756 0.036-115.548 0.072-173.303-37.42-0.036-74.877 0.144-112.297-0.217-28.86-0.289-40.635-9.211-42.513-37.565-2.276-35.325-1.12-70.831-1.625-106.301-0.144-12.245 8.958-9.030 15.423-9.030 42.694-0.181 85.351-0.506 128.045 0.144 11.631 0.217 14.195-3.359 13.075-14.448-4.551-45.692-8.633-91.456-12.209-137.256-1.047-13.762-4.551-20.191-20.624-19.433-34.061 1.553-68.339-0.47-102.4 0.867-16.687 0.65-21.853-2.926-21.78-20.986 0.831-154.304 0.506-308.609 0.433-462.913 0-7.224-0.578-14.376-0.831-21.6-66.966 0-133.969 0-200.935 0-0.289 55.155-0.795 110.346-0.867 165.465-0.108 105.109 0.036 210.254-0.217 315.363 0 6.682 3.648 14.34-2.962 20.227-25.79 4.407-51.796 0.759-77.622 2.059-8.38 0.397-16.904-1.625-25.139 1.517l-0.072 0.253c0.072 56.564 0.144 113.128 0.253 169.728 30.196 0.289 60.429 1.192 90.625 0.578 12.353-0.217 15.64 3.612 15.387 15.64-0.722 40.093-0.181 80.222-0.289 120.315-0.036 21.744 1.3 43.344 6.682 64.51 19.396 76.827 79.247 122.447 166.73 126.998z" />
<glyph unicode="&#xe64f;" d="M519.73 753.936c-220.187 0-411.009-124.325-504.776-305.936 93.767-181.611 284.589-305.936 504.776-305.936 220.115 0 410.973 124.289 504.776 305.936-93.767 181.647-284.661 305.936-504.776 305.936zM768.56 591.685c59.345-36.698 109.624-85.821 147.405-143.685-37.781-57.9-88.060-106.987-147.405-143.721-74.515-46.089-160.553-70.434-248.83-70.434-88.313 0-174.351 24.345-248.902 70.434-59.309 36.734-109.588 85.821-147.333 143.721 37.745 57.864 88.024 106.987 147.333 143.685 3.865 2.384 7.766 4.696 11.667 6.971-9.789-26.151-15.17-54.324-15.17-83.726 0-135.197 112.983-244.749 252.406-244.749 139.387 0 252.37 109.552 252.37 244.749 0 29.402-5.346 57.611-15.134 83.726 3.901-2.239 7.838-4.551 11.594-6.971zM519.73 545.524c0-50.712-42.405-91.817-94.67-91.817s-94.634 41.104-94.634 91.817c0 50.676 42.369 91.781 94.634 91.781s94.67-41.068 94.67-91.781z" />
<glyph unicode="&#xe650;" d="M12.75 782.218l500.803-401.798 500.803 401.798v-266.565l-500.839-401.834-500.767 401.834v266.565z" />
<glyph unicode="&#xe651;" d="M898.086 155.356c-6.971 46.739-21.455 78.633-55.263 104.712-58.153 44.68-124.253 56.166-195.156 40.671-12.823-2.853-19.216 0.181-25.573 11.197-28.39 49.087-55.733 98.716-77.983 150.981-37.998 89.072-68.556 179.841-57.647 279.352 0 0.217 0.036 1.047 0.036 1.047s0.108-0.722 0.108-0.47c8.127-49.809 30.449-93.442 66.461-128.226 69.386-66.966 152.86-84.448 245.471-62.668 18.674 4.443 21.708 10.186 18.855 29.654-3.973 27.523-9.030 54.866-17.952 81.306-28.499 84.773-81.812 147.478-164.418 183.995-21.816 9.644-44.897 14.918-67.328 21.058-0.289 2.565 0.722 3.72 1.878 4.696 3.431 2.998 7.332 5.274 11.269 7.621 35.289 20.769 73.143 34.242 113.669 39.84 9.861 1.373 14.629 5.888 14.412 15.64-0.072 4.371 1.481 18.385-3.829 21.816-6.827 1.084-25.392 0.831-39.515 0-14.845-0.759-26.909-1.95-40.201-5.093-60.898-14.34-112.586-45.222-155.569-89.866-40.057-41.574-69.928-90.372-92.684-143.324-53.783-125.011-73.757-257.029-79.861-391.757-0.939-20.299-0.144-20.986-20.841-23.767-29.185-3.973-56.203-14.123-80.547-29.835-36.012-23.189-64.005-54.18-71.626-97.596-9.716-55.155-5.779-109.118 28.571-156.76 33.447-46.306 76.105-77.694 135.522-80.836 5.274-0.759 46.414-1.373 52.374-0.578 12.136-0.072 26.873 1.192 38.432 5.346 70.795 25.392 113.633 75.671 131.766 147.658 5.346-25.428 15.351-49.52 30.521-70.976 33.339-46.992 76.574-78.272 136.28-81.487 5.093-0.722 48.617-0.795 54.649 0 31.28-1.373 58.261 11.342 82.859 28.39 47.678 32.977 72.926 82.028 79.247 121.724 2.998 18.457 7.296 41.899 3.612 66.533zM515.468 836.181c13.509-4.443 106.879-107.854 162.612-163.515 4.298-2.781 8.597-5.454 10.366-13.437-6.791 2.998-11.161 5.274-14.34 9.463-63.21 41.791-119.449 91.383-169.366 148.308-9.174 10.511-3.468 25.898 10.728 19.18zM586.588 270.615c-41.177-25.79-65.919-63.029-73.251-111.394-1.698-2.203-3.431-2.203-5.165 0-9.644 63.968-49.304 102.906-106.482 126.962-18.71 7.838-38.395 12.606-58.406 15.17-8.091 1.011-9.825 3.756-9.5 11.306 5.635 131.513 23.948 260.497 73.974 383.377 10.294 25.284 22.9 49.448 36.987 72.782 2.673 4.443 4.334 10.294 11.053 12.317 2.817-8.055-1.734-14.954-3.034-21.889-15.532-82.895 2.059-161.817 28.788-239.475 27.704-80.475 65.919-155.966 109.732-228.784 5.707-9.644 5.635-13.906-4.696-20.372z" />
<glyph unicode="&#xe652;" d="M348.377 283.907l477.289 477.361c41.177 41.213 107.962 41.213 149.211 0 41.177-41.213 41.177-107.999 0-149.211l-477.361-477.361c-41.177-41.177-107.999-41.177-149.175 0-41.177 41.249-41.177 108.071 0.036 149.211zM212.494 565.787l281.808-281.88c41.213-41.177 41.213-107.962 0-149.211-41.177-41.177-107.999-41.177-149.211 0l-281.808 281.916c-41.213 41.141-41.213 107.926 0 149.175 41.213 41.141 107.999 41.141 149.211 0z" />
<glyph unicode="&#xe653;" d="M646.366-57.39l-362.102 505.426 362.102 505.39h93.406l-362.102-505.39 362.066-505.426h-93.37z" />
<glyph unicode="&#xe654;" d="M36.12 600.137v287.623h108.36v-28.174c0 0 88.458 50.532 284.806 57.214 205.486 7.007 310.848-78.236 370.771-72.457 72.746 7.007 75.166 44.391 75.166 44.391l125.445 2.348c0 0 9.861-114.392-87.194-266.421-53.71-84.123-217.297-295.064-260.75-385.941-44.644-93.334-36.084-290.079-36.084-290.079h-377.598c0 0-6.213 254.754 95.14 385.616 101.316 130.899 341.189 305.322 341.189 305.322s-86.868-7.477-159.253 4.226c-67.833 10.944-194.361 33.664-260.533 19.649-66.172-14.051-93.442-62.632-93.442-62.632l-126.022-0.686z" />
<glyph unicode="&#xe655;" d="M493.145 374.64l-358.96-358.96c-7.621-7.657-12.245-18.204-12.245-29.871 0-23.297 18.818-42.333 42.333-42.333 6.14 0 11.847 1.264 17.157 3.612 0 0 598.074 259.197 604.828 262.411 14.015 6.321 24.814 18.602 29.040 33.88l96.801 348.774 19.469-19.288c20.336-20.336 53.169-20.336 73.468 0 20.336 20.336 20.336 53.169 0 73.504l-298.387 298.387c-20.336 20.336-53.169 20.336-73.432 0-20.372-20.336-20.372-53.169 0-73.468l19.216-19.288-349.496-97.199c-15.243-4.479-27.523-15.495-33.88-29.871l-261.942-604.431c-2.131-5.093-3.395-10.583-3.395-16.507 0-23.478 19.035-42.369 42.369-42.369 12.064 0 22.864 4.912 30.485 12.895l358.31 358.346c-4.876 12.497-7.621 25.862-7.621 40.021 0 58.478 47.462 105.904 105.904 105.904 58.406 0 105.904-47.425 105.904-105.904 0-58.442-47.462-105.868-105.904-105.868-14.195 0-27.523 2.745-40.021 7.621z" />
<glyph unicode="&#xe656;" d="M1020.713 28.359l-89.072-89.072-924.128 924.092 89.072 89.072 924.128-924.092zM96.621-60.713l-89.072 89.072 924.092 924.128 89.072-89.036-924.092-924.165z" />
<glyph unicode="&#xe657;" d="M72.24 671.041v144.48h905.852l5.562-144.48h-116.776v36.12h-650.159v-36.12zM201.658 598.801l54.108-650.159h567.733l54.035 650.159h-675.876zM464.972 20.882h-93.37l-40.165 469.559h151.74l-18.204-469.559zM711.815 57.002h-93.37l-17.012 433.439h151.74l-41.357-433.439zM392.913 961.914v-164.996h86.868v83.943h118.654v-86.832h83.979v167.885z" />
<glyph unicode="&#xe658;" d="M192 832l640-384-640-384z" />
</font>
</defs>
</svg>
